<svg xmlns="http://www.w3.org/2000/svg" xmlns:xlink="http://www.w3.org/1999/xlink" contentStyleType="text/css" data-diagram-type="SEQUENCE" preserveAspectRatio="xMidYMid meet" version="1.1" viewBox="0 0 1397 1033" zoomAndPan="magnify" width="1397" height="1033"><title>Mode A &#8212; virtual buyer drives a real supplier</title><defs/><g><text fill="#000000" font-family="Verdana" font-size="22" font-weight="bold" lengthAdjust="spacing" textLength="492.9996" x="456.1352" y="38.5181">Mode A &#8212; virtual buyer drives a real supplier</text><rect fill="#FFFFFF" height="146.5301" style="stroke:#000000;stroke-width:1;" width="728.8733" x="15" y="248.1501"/><g class="participant-lifeline" data-entity-uid="part1" data-qualified-name="Op" id="part1-lifeline"><g><title>Operator</title><rect fill="#000000" fill-opacity="0.00000" height="813.6504" width="8" x="54.1909" y="136.032"/><line style="stroke:#000000;stroke-width:1;stroke-dasharray:5,5;" x1="58" x2="58" y1="136.032" y2="949.6824"/></g></g><g class="participant-lifeline" data-entity-uid="part2" data-qualified-name="SPA" id="part2-lifeline"><g><title>SPA</title><rect fill="#000000" fill-opacity="0.00000" height="813.6504" width="8" x="309.1101" y="136.032"/><line style="stroke:#000000;stroke-width:1;stroke-dasharray:5,5;" x1="312.5591" x2="312.5591" y1="136.032" y2="949.6824"/></g></g><g class="participant-lifeline" data-entity-uid="part3" data-qualified-name="Flow" id="part3-lifeline"><g><title>flow.ts</title><rect fill="#000000" fill-opacity="0.00000" height="813.6504" width="8" x="570.1654" y="136.032"/><line style="stroke:#000000;stroke-width:1;stroke-dasharray:5,5;" x1="573.4585" x2="573.4585" y1="136.032" y2="949.6824"/></g></g><g class="participant-lifeline" data-entity-uid="part4" data-qualified-name="Val" id="part4-lifeline"><g><title>validate.ts</title><rect fill="#000000" fill-opacity="0.00000" height="813.6504" width="8" x="679.3155" y="136.032"/><line style="stroke:#000000;stroke-width:1;stroke-dasharray:5,5;" x1="682.7576" x2="682.7576" y1="136.032" y2="949.6824"/></g></g><g class="participant-lifeline" data-entity-uid="part5" data-qualified-name="Sup" id="part5-lifeline"><g><title>Real supplier</title><rect fill="#000000" fill-opacity="0.00000" height="813.6504" width="8" x="848.1727" y="136.032"/><line style="stroke:#000000;stroke-width:1;stroke-dasharray:5,5;" x1="851.5778" x2="851.5778" y1="136.032" y2="949.6824"/></g></g><g class="participant-lifeline" data-entity-uid="part6" data-qualified-name="Cb" id="part6-lifeline"><g><title>.punchout</title><rect fill="#000000" fill-opacity="0.00000" height="813.6504" width="8" x="1151.4909" y="136.032"/><line style="stroke:#000000;stroke-width:1;stroke-dasharray:5,5;" x1="1155.1561" x2="1155.1561" y1="136.032" y2="949.6824"/></g></g><g class="participant-lifeline" data-entity-uid="part7" data-qualified-name="Log" id="part7-lifeline"><g><title>session log</title><rect fill="#000000" fill-opacity="0.00000" height="813.6504" width="8" x="1352.7301" y="136.032"/><line style="stroke:#000000;stroke-width:1;stroke-dasharray:5,5;" x1="1356.1902" x2="1356.1902" y1="136.032" y2="949.6824"/></g></g><g class="participant participant-head" data-entity-uid="part1" data-qualified-name="Op" id="part1-head"><text fill="#000000" font-family="Verdana" font-size="14" lengthAdjust="spacing" textLength="60.3818" x="25" y="131.93">Operator</text><ellipse cx="58.1909" cy="64.9641" fill="#FFFFFF" rx="8" ry="8" style="stroke:#000000;stroke-width:1;"/><path d="M58.1909,72.9641 L58.1909,99.9641 M45.1909,80.9641 L71.1909,80.9641 M58.1909,99.9641 L45.1909,114.9641 M58.1909,99.9641 L71.1909,114.9641" fill="none" style="stroke:#000000;stroke-width:1;"/></g><g class="participant participant-tail" data-entity-uid="part1" data-qualified-name="Op" id="part1-tail"><text fill="#000000" font-family="Verdana" font-size="14" lengthAdjust="spacing" textLength="60.3818" x="25" y="963.6484">Operator</text><ellipse cx="58.1909" cy="976.7503" fill="#FFFFFF" rx="8" ry="8" style="stroke:#000000;stroke-width:1;"/><path d="M58.1909,984.7503 L58.1909,1011.7503 M45.1909,992.7503 L71.1909,992.7503 M58.1909,1011.7503 L45.1909,1026.7503 M58.1909,1011.7503 L71.1909,1026.7503" fill="none" style="stroke:#000000;stroke-width:1;"/></g><g class="participant participant-head" data-entity-uid="part2" data-qualified-name="SPA" id="part2-head"><rect fill="#FFFFFF" height="33.0679" rx="2.5" ry="2.5" style="stroke:#000000;stroke-width:1;" width="39.1019" x="293.5591" y="101.9641"/><text fill="#000000" font-family="Verdana" font-size="14" lengthAdjust="spacing" textLength="25.1019" x="300.5591" y="123.93">SPA</text></g><g class="participant participant-tail" data-entity-uid="part2" data-qualified-name="SPA" id="part2-tail"><rect fill="#FFFFFF" height="33.0679" rx="2.5" ry="2.5" style="stroke:#000000;stroke-width:1;" width="39.1019" x="293.5591" y="948.6824"/><text fill="#000000" font-family="Verdana" font-size="14" lengthAdjust="spacing" textLength="25.1019" x="300.5591" y="970.6484">SPA</text></g><g class="participant participant-head" data-entity-uid="part3" data-qualified-name="Flow" id="part3-head"><rect fill="#FFFFFF" height="52.1358" rx="2.5" ry="2.5" style="stroke:#000000;stroke-width:1;" width="57.4138" x="545.4585" y="82.8962"/><text fill="#000000" font-family="Verdana" font-size="14" lengthAdjust="spacing" textLength="43.4138" x="552.4585" y="104.8621">flow.ts</text><text fill="#000000" font-family="Verdana" font-size="14" lengthAdjust="spacing" textLength="33.6839" x="557.3234" y="123.93">(/api)</text></g><g class="participant participant-tail" data-entity-uid="part3" data-qualified-name="Flow" id="part3-tail"><rect fill="#FFFFFF" height="52.1358" rx="2.5" ry="2.5" style="stroke:#000000;stroke-width:1;" width="57.4138" x="545.4585" y="948.6824"/><text fill="#000000" font-family="Verdana" font-size="14" lengthAdjust="spacing" textLength="43.4138" x="552.4585" y="970.6484">flow.ts</text><text fill="#000000" font-family="Verdana" font-size="14" lengthAdjust="spacing" textLength="33.6839" x="557.3234" y="989.7163">(/api)</text></g><g class="participant participant-head" data-entity-uid="part4" data-qualified-name="Val" id="part4-head"><rect fill="#FFFFFF" height="33.0679" rx="2.5" ry="2.5" style="stroke:#000000;stroke-width:1;" width="81.1158" x="642.7576" y="101.9641"/><text fill="#000000" font-family="Verdana" font-size="14" lengthAdjust="spacing" textLength="67.1158" x="649.7576" y="123.93">validate.ts</text></g><g class="participant participant-tail" data-entity-uid="part4" data-qualified-name="Val" id="part4-tail"><rect fill="#FFFFFF" height="33.0679" rx="2.5" ry="2.5" style="stroke:#000000;stroke-width:1;" width="81.1158" x="642.7576" y="948.6824"/><text fill="#000000" font-family="Verdana" font-size="14" lengthAdjust="spacing" textLength="67.1158" x="649.7576" y="970.6484">validate.ts</text></g><g class="participant participant-head" data-entity-uid="part5" data-qualified-name="Sup" id="part5-head"><rect fill="#FFFFFF" height="33.0679" rx="2.5" ry="2.5" style="stroke:#000000;stroke-width:1;" width="99.1897" x="802.5778" y="101.9641"/><text fill="#000000" font-family="Verdana" font-size="14" lengthAdjust="spacing" textLength="85.1897" x="809.5778" y="123.93">Real supplier</text></g><g class="participant participant-tail" data-entity-uid="part5" data-qualified-name="Sup" id="part5-tail"><rect fill="#FFFFFF" height="33.0679" rx="2.5" ry="2.5" style="stroke:#000000;stroke-width:1;" width="99.1897" x="802.5778" y="948.6824"/><text fill="#000000" font-family="Verdana" font-size="14" lengthAdjust="spacing" textLength="85.1897" x="809.5778" y="970.6484">Real supplier</text></g><g class="participant participant-head" data-entity-uid="part6" data-qualified-name="Cb" id="part6-head"><rect fill="#FFFFFF" height="52.1358" rx="2.5" ry="2.5" style="stroke:#000000;stroke-width:1;" width="82.6697" x="1114.1561" y="82.8962"/><text fill="#000000" font-family="Verdana" font-size="14" lengthAdjust="spacing" textLength="68.6697" x="1121.1561" y="104.8621">/punchout</text><text fill="#000000" font-family="Verdana" font-size="14" lengthAdjust="spacing" textLength="52.4578" x="1129.262" y="123.93">callback</text></g><g class="participant participant-tail" data-entity-uid="part6" data-qualified-name="Cb" id="part6-tail"><rect fill="#FFFFFF" height="52.1358" rx="2.5" ry="2.5" style="stroke:#000000;stroke-width:1;" width="82.6697" x="1114.1561" y="948.6824"/><text fill="#000000" font-family="Verdana" font-size="14" lengthAdjust="spacing" textLength="68.6697" x="1121.1561" y="970.6484">/punchout</text><text fill="#000000" font-family="Verdana" font-size="14" lengthAdjust="spacing" textLength="52.4578" x="1129.262" y="989.7163">callback</text></g><g class="participant participant-head" data-entity-uid="part7" data-qualified-name="Log" id="part7-head"><text fill="#000000" font-family="Verdana" font-size="14" lengthAdjust="spacing" textLength="73.0797" x="1317.1902" y="131.93">session log</text><path d="M1338.7301,80.9641 C1338.7301,70.9641 1356.7301,70.9641 1356.7301,70.9641 C1356.7301,70.9641 1374.7301,70.9641 1374.7301,80.9641 L1374.7301,106.9641 C1374.7301,116.9641 1356.7301,116.9641 1356.7301,116.9641 C1356.7301,116.9641 1338.7301,116.9641 1338.7301,106.9641 L1338.7301,80.9641" fill="#FFFFFF" style="stroke:#000000;stroke-width:1;"/><path d="M1338.7301,80.9641 C1338.7301,90.9641 1356.7301,90.9641 1356.7301,90.9641 C1356.7301,90.9641 1374.7301,90.9641 1374.7301,80.9641" fill="none" style="stroke:#000000;stroke-width:1;"/></g><g class="participant participant-tail" data-entity-uid="part7" data-qualified-name="Log" id="part7-tail"><text fill="#000000" font-family="Verdana" font-size="14" lengthAdjust="spacing" textLength="73.0797" x="1317.1902" y="963.6484">session log</text><path d="M1338.7301,977.7503 C1338.7301,967.7503 1356.7301,967.7503 1356.7301,967.7503 C1356.7301,967.7503 1374.7301,967.7503 1374.7301,977.7503 L1374.7301,1003.7503 C1374.7301,1013.7503 1356.7301,1013.7503 1356.7301,1013.7503 C1356.7301,1013.7503 1338.7301,1013.7503 1338.7301,1003.7503 L1338.7301,977.7503" fill="#FFFFFF" style="stroke:#000000;stroke-width:1;"/><path d="M1338.7301,977.7503 C1338.7301,987.7503 1356.7301,987.7503 1356.7301,987.7503 C1356.7301,987.7503 1374.7301,987.7503 1374.7301,977.7503" fill="none" style="stroke:#000000;stroke-width:1;"/></g><g class="message" data-entity-1="part1" data-entity-2="part2" id="msg1"><polygon fill="#000000" points="301.1101,165.738,311.1101,169.738,301.1101,173.738,305.1101,169.738" style="stroke:#000000;stroke-width:1;"/><line style="stroke:#000000;stroke-width:1;" x1="58.1909" x2="307.1101" y1="169.738" y2="169.738"/><text fill="#000000" font-family="Verdana" font-size="13" lengthAdjust="spacing" textLength="230.9192" x="65.1909" y="163.929">New session (Connection + operation)</text></g><g class="message" data-entity-1="part2" data-entity-2="part3" id="msg2"><polygon fill="#000000" points="562.1654,197.4441,572.1654,201.4441,562.1654,205.4441,566.1654,201.4441" style="stroke:#000000;stroke-width:1;"/><line style="stroke:#000000;stroke-width:1;" x1="313.1101" x2="568.1654" y1="201.4441" y2="201.4441"/><text fill="#000000" font-family="Verdana" font-size="13" lengthAdjust="spacing" textLength="147.5891" x="320.1101" y="195.635">POST /:id/setup/preview</text></g><g class="message" data-entity-1="part3" data-entity-2="part2" id="msg3"><polygon fill="#000000" points="324.1101,229.1501,314.1101,233.1501,324.1101,237.1501,320.1101,233.1501" style="stroke:#000000;stroke-width:1;"/><line style="stroke:#000000;stroke-width:1;" x1="318.1101" x2="573.1654" y1="233.1501" y2="233.1501"/><text fill="#000000" font-family="Verdana" font-size="13" lengthAdjust="spacing" textLength="237.0553" x="330.1101" y="227.3411">built PunchOutSetupRequest (Monaco)</text></g><path d="M15,248.1501 L81.983,248.1501 L81.983,257.8561 L71.983,267.8561 L15,267.8561 L15,248.1501" fill="#FFFFFF" style="stroke:#000000;stroke-width:1;"/><rect fill="none" height="146.5301" style="stroke:#000000;stroke-width:1;" width="728.8733" x="15" y="248.1501"/><text fill="#000000" font-family="Verdana" font-size="13" font-weight="bold" lengthAdjust="spacing" textLength="21.983" x="30" y="263.0471">opt</text><text fill="#000000" font-family="Verdana" font-size="11" font-weight="bold" lengthAdjust="spacing" textLength="119.6461" x="96.983" y="261.909">[validate before send]</text><g class="message" data-entity-1="part1" data-entity-2="part2" id="msg4"><polygon fill="#000000" points="301.1101,287.5621,311.1101,291.5621,301.1101,295.5621,305.1101,291.5621" style="stroke:#000000;stroke-width:1;"/><line style="stroke:#000000;stroke-width:1;" x1="58.1909" x2="307.1101" y1="291.5621" y2="291.5621"/><text fill="#000000" font-family="Verdana" font-size="13" lengthAdjust="spacing" textLength="49.114" x="65.1909" y="285.7531">Validate</text></g><g class="message" data-entity-1="part2" data-entity-2="part3" id="msg5"><polygon fill="#000000" points="562.1654,319.2681,572.1654,323.2681,562.1654,327.2681,566.1654,323.2681" style="stroke:#000000;stroke-width:1;"/><line style="stroke:#000000;stroke-width:1;" x1="313.1101" x2="568.1654" y1="323.2681" y2="323.2681"/><text fill="#000000" font-family="Verdana" font-size="13" lengthAdjust="spacing" textLength="108.1861" x="320.1101" y="317.4591">POST /:id/validate</text></g><g class="message" data-entity-1="part3" data-entity-2="part4" id="msg6"><polygon fill="#000000" points="671.3155,350.9741,681.3155,354.9741,671.3155,358.9741,675.3155,354.9741" style="stroke:#000000;stroke-width:1;"/><line style="stroke:#000000;stroke-width:1;" x1="574.1654" x2="677.3155" y1="354.9741" y2="354.9741"/><text fill="#000000" font-family="Verdana" font-size="13" lengthAdjust="spacing" textLength="85.1501" x="581.1654" y="349.1651">check request</text></g><g class="message" data-entity-1="part4" data-entity-2="part2" id="msg7"><polygon fill="#000000" points="324.1101,382.6802,314.1101,386.6802,324.1101,390.6802,320.1101,386.6802" style="stroke:#000000;stroke-width:1;"/><line style="stroke:#000000;stroke-width:1;" x1="318.1101" x2="682.3155" y1="386.6802" y2="386.6802"/><text fill="#000000" font-family="Verdana" font-size="13" lengthAdjust="spacing" textLength="135.0181" x="330.1101" y="380.8711">issues (error/warning)</text></g><g class="message" data-entity-1="part1" data-entity-2="part2" id="msg8"><polygon fill="#000000" points="301.1101,421.3862,311.1101,425.3862,301.1101,429.3862,305.1101,425.3862" style="stroke:#000000;stroke-width:1;"/><line style="stroke:#000000;stroke-width:1;" x1="58.1909" x2="307.1101" y1="425.3862" y2="425.3862"/><text fill="#000000" font-family="Verdana" font-size="13" lengthAdjust="spacing" textLength="30.498" x="65.1909" y="419.5772">Send</text></g><g class="message" data-entity-1="part2" data-entity-2="part3" id="msg9"><polygon fill="#000000" points="562.1654,453.0922,572.1654,457.0922,562.1654,461.0922,566.1654,457.0922" style="stroke:#000000;stroke-width:1;"/><line style="stroke:#000000;stroke-width:1;" x1="313.1101" x2="568.1654" y1="457.0922" y2="457.0922"/><text fill="#000000" font-family="Verdana" font-size="13" lengthAdjust="spacing" textLength="94.5491" x="320.1101" y="451.2832">POST /:id/setup</text></g><g class="message" data-entity-1="part3" data-entity-2="part5" id="msg10"><polygon fill="#000000" points="840.1727,484.7982,850.1727,488.7982,840.1727,492.7982,844.1727,488.7982" style="stroke:#000000;stroke-width:1;"/><line style="stroke:#000000;stroke-width:1;" x1="574.1654" x2="846.1727" y1="488.7982" y2="488.7982"/><text fill="#000000" font-family="Verdana" font-size="13" lengthAdjust="spacing" textLength="145.9772" x="581.1654" y="482.9892">PunchOutSetupRequest</text></g><g class="message" data-entity-1="part5" data-entity-2="part3" id="msg11"><polygon fill="#000000" points="585.1654,516.5042,575.1654,520.5042,585.1654,524.5042,581.1654,520.5042" style="stroke:#000000;stroke-width:1;"/><line style="stroke:#000000;stroke-width:1;" x1="579.1654" x2="851.1727" y1="520.5042" y2="520.5042"/><text fill="#000000" font-family="Verdana" font-size="13" lengthAdjust="spacing" textLength="254.0073" x="591.1654" y="514.6952">PunchOutSetupResponse (StartPage URL)</text></g><g class="message" data-entity-1="part3" data-entity-2="part7" id="msg12"><polygon fill="#000000" points="1344.7301,548.2102,1354.7301,552.2102,1344.7301,556.2102,1348.7301,552.2102" style="stroke:#000000;stroke-width:1;"/><line style="stroke:#000000;stroke-width:1;" x1="574.1654" x2="1350.7301" y1="552.2102" y2="552.2102"/><text fill="#000000" font-family="Verdana" font-size="13" lengthAdjust="spacing" textLength="167.5831" x="581.1654" y="546.4012">append request + response</text></g><g class="message" data-entity-1="part3" data-entity-2="part2" id="msg13"><polygon fill="#000000" points="324.1101,579.9163,314.1101,583.9163,324.1101,587.9163,320.1101,583.9163" style="stroke:#000000;stroke-width:1;"/><line style="stroke:#000000;stroke-width:1;" x1="318.1101" x2="573.1654" y1="583.9163" y2="583.9163"/><text fill="#000000" font-family="Verdana" font-size="13" lengthAdjust="spacing" textLength="87.4511" x="330.1101" y="578.1072">StartPage URL</text></g><g class="message" data-entity-1="part1" data-entity-2="part5" id="msg14"><polygon fill="#000000" points="840.1727,611.6223,850.1727,615.6223,840.1727,619.6223,844.1727,615.6223" style="stroke:#000000;stroke-width:1;"/><line style="stroke:#000000;stroke-width:1;" x1="58.1909" x2="846.1727" y1="615.6223" y2="615.6223"/><text fill="#000000" font-family="Verdana" font-size="13" lengthAdjust="spacing" textLength="199.7842" x="65.1909" y="609.8133">open StartPage, shop in browser</text></g><g class="message" data-entity-1="part5" data-entity-2="part6" id="msg15"><polygon fill="#000000" points="1143.4909,661.0343,1153.4909,665.0343,1143.4909,669.0343,1147.4909,665.0343" style="stroke:#000000;stroke-width:1;"/><line style="stroke:#000000;stroke-width:1;" x1="852.1727" x2="1149.4909" y1="665.0343" y2="665.0343"/><text fill="#000000" font-family="Verdana" font-size="13" lengthAdjust="spacing" textLength="279.3183" x="859.1727" y="641.5193">browser auto-POSTs PunchOutOrderMessage</text><text fill="#000000" font-family="Verdana" font-size="13" lengthAdjust="spacing" textLength="195.3772" x="859.1727" y="659.2253">(BrowserFormPost = /punchout)</text></g><g class="message" data-entity-1="part6" data-entity-2="part6" id="msg16"><line style="stroke:#000000;stroke-width:1;" x1="1155.4909" x2="1197.4909" y1="696.7403" y2="696.7403"/><line style="stroke:#000000;stroke-width:1;" x1="1197.4909" x2="1197.4909" y1="696.7403" y2="709.7403"/><line style="stroke:#000000;stroke-width:1;" x1="1156.4909" x2="1197.4909" y1="709.7403" y2="709.7403"/><polygon fill="#000000" points="1166.4909,705.7403,1156.4909,709.7403,1166.4909,713.7403,1162.4909,709.7403" style="stroke:#000000;stroke-width:1;"/><text fill="#000000" font-family="Verdana" font-size="13" lengthAdjust="spacing" textLength="187.2392" x="1162.4909" y="690.9313">parse cart, match BuyerCookie</text></g><g class="message" data-entity-1="part6" data-entity-2="part7" id="msg17"><polygon fill="#000000" points="1344.7301,737.4463,1354.7301,741.4463,1344.7301,745.4463,1348.7301,741.4463" style="stroke:#000000;stroke-width:1;"/><line style="stroke:#000000;stroke-width:1;" x1="1155.4909" x2="1350.7301" y1="741.4463" y2="741.4463"/><text fill="#000000" font-family="Verdana" font-size="13" lengthAdjust="spacing" textLength="128.3101" x="1162.4909" y="735.6373">append inbound cart</text></g><g class="message" data-entity-1="part2" data-entity-2="part3" id="msg18"><polygon fill="#000000" points="562.1654,769.1523,572.1654,773.1523,562.1654,777.1523,566.1654,773.1523" style="stroke:#000000;stroke-width:1;"/><line style="stroke:#000000;stroke-width:1;" x1="313.1101" x2="568.1654" y1="773.1523" y2="773.1523"/><text fill="#000000" font-family="Verdana" font-size="13" lengthAdjust="spacing" textLength="213.9412" x="320.1101" y="767.3433">poll / SSE -&gt; cart appears in session</text></g><g class="message" data-entity-1="part1" data-entity-2="part2" id="msg19"><polygon fill="#000000" points="301.1101,800.8584,311.1101,804.8584,301.1101,808.8584,305.1101,804.8584" style="stroke:#000000;stroke-width:1;"/><line style="stroke:#000000;stroke-width:1;" x1="58.1909" x2="307.1101" y1="804.8584" y2="804.8584"/><text fill="#000000" font-family="Verdana" font-size="13" lengthAdjust="spacing" textLength="165.8932" x="65.1909" y="799.0494">build &amp; send OrderRequest</text></g><g class="message" data-entity-1="part2" data-entity-2="part3" id="msg20"><polygon fill="#000000" points="562.1654,832.5644,572.1654,836.5644,562.1654,840.5644,566.1654,836.5644" style="stroke:#000000;stroke-width:1;"/><line style="stroke:#000000;stroke-width:1;" x1="313.1101" x2="568.1654" y1="836.5644" y2="836.5644"/><text fill="#000000" font-family="Verdana" font-size="13" lengthAdjust="spacing" textLength="226.1352" x="320.1101" y="830.7554">POST /:id/order (optionally multipart)</text></g><g class="message" data-entity-1="part3" data-entity-2="part5" id="msg21"><polygon fill="#000000" points="840.1727,864.2704,850.1727,868.2704,840.1727,872.2704,844.1727,868.2704" style="stroke:#000000;stroke-width:1;"/><line style="stroke:#000000;stroke-width:1;" x1="574.1654" x2="846.1727" y1="868.2704" y2="868.2704"/><text fill="#000000" font-family="Verdana" font-size="13" lengthAdjust="spacing" textLength="85.9171" x="581.1654" y="862.4614">OrderRequest</text></g><g class="message" data-entity-1="part5" data-entity-2="part3" id="msg22"><polygon fill="#000000" points="585.1654,895.9764,575.1654,899.9764,585.1654,903.9764,581.1654,899.9764" style="stroke:#000000;stroke-width:1;"/><line style="stroke:#000000;stroke-width:1;" x1="579.1654" x2="851.1727" y1="899.9764" y2="899.9764"/><text fill="#000000" font-family="Verdana" font-size="13" lengthAdjust="spacing" textLength="144.5732" x="591.1654" y="894.1674">OrderResponse (Status)</text></g><g class="message" data-entity-1="part3" data-entity-2="part7" id="msg23"><polygon fill="#000000" points="1344.7301,927.6824,1354.7301,931.6824,1344.7301,935.6824,1348.7301,931.6824" style="stroke:#000000;stroke-width:1;"/><line style="stroke:#000000;stroke-width:1;" x1="574.1654" x2="1350.7301" y1="931.6824" y2="931.6824"/><text fill="#000000" font-family="Verdana" font-size="13" lengthAdjust="spacing" textLength="46.644" x="581.1654" y="925.8734">append</text></g><?plantuml-src VLDDRzim3BthLt0v337MplS26z06wwbPWdZhgHVPPXCXYgZf8q5l-n7xXVib8rt7YODs9mdau-EZ7lKXRN27uAqsJYMJBCASMeHR-Flx3-nDI5bRgFCB1cY3sMC43G4v5hFtrc1GIZU90Ymy1YqN7Vckl0x9DCPhbs1IBMyd4kTpd7YsTFYSufERbjgReWFTSsoCscjhMfsGaHtYKTinO7KkwBLJlf1G-koQ3UNqv1fjRQsRRGUSrOgfTQqZmYHYZ8OSM5ftoGTQAxNmSFrLfCCDVCS3747J6Jc7JPBx9w1kVBuNIg1S8NDmoN9H_O3onhHbn9HzwGFk3HvKbnw8wsniWgLeNEHK2NA5lpB61DCvETrGeSWdE3u5rFXC0LcCQnN0kSR77iBXzvJiJv2Z3AvYIBF1Pil-TfqvAz61sCJ8OPXY21JAWmxEk7MXHC5v_qe2_ts3q-pPI_QDgPMapWZ6aEZ9iL_JAh75Ixr6-BbwA0PQjerhjFUiv3WCMnJwkekd7v4CTdVAs5Htobz1t907uw0ET8Yy-ht8MIqEliP0vqJNCd0SL2z2Ys7EQyCalEfthyXx2hibiR8lC2ndePZhoCZxoqCstFqATZer6xYJVpWZsXhiWQDHZQifyoab5mvuiXPAgAfl4XH0LyGTP9v-fSUxBYlPmiTknQ0ROV3c7ND9G33bFMKo_cGliCis6Vc7nONdOxwHrttgpEEKuzlc_WC0?></g></svg>